<svg width="800" height="800" xmlns="http://www.w3.org/2000/svg">
<g fill="none"><path d="M618.518 186.094l-.55-.323-1.27-.387c.512.43 1.151.681 1.82.71zM626.516 243.246l-.613.172.613-.172zM618.752 186.006a1.109 1.109 0 01-.229-.055.888.888 0 000 .153.462.462 0 00.23-.098z" fill="#0d0c22"/><path d="M618.52 186.1h.082v-.05l-.082.05zM626.025 243.143l.926-.527.344-.194.312-.333a5.284 5.284 0 00-1.582 1.054zM620.119 187.343l-.905-.861-.612-.334a2.55 2.55 0 001.517 1.195zM392.66 741.94c-.722.313-1.355.801-1.84 1.42l.57-.362c.387-.357.936-.776 1.27-1.057zM524.743 715.952c0-.814-.398-.663-.301 2.239 0-.232.097-.47.14-.694.054-.52.097-1.026.161-1.545zM511.043 741.94a4.72 4.72 0 00-1.84 1.42l.57-.362c.388-.357.937-.776 1.27-1.057zM299.64 748.12a3.94 3.94 0 00-1.937-.907c.581.282 1.162.563 1.55.776l.387.131zM278.71 728.074a6.19 6.19 0 00-.765-2.409c.297.77.545 1.564.743 2.365l.022.044z" fill="#0d0c22"/><path d="M419.308 369.56c-28.735 12.302-61.346 26.25-103.61 26.25a196.14 196.14 0 01-52.305-7.21l29.23 300.112a50.143 50.143 0 0049.981 46.017s41.446 2.151 55.276 2.151c14.884 0 59.516-2.151 59.516-2.151a50.14 50.14 0 0033.966-13.26 50.132 50.132 0 0016.004-32.757l31.308-331.636c-13.99-4.778-28.111-7.953-44.029-7.953-27.53-.011-49.712 9.47-75.337 20.437z" fill="#000"/><path d="M172.907 241.52l.495.464.323.193a4.973 4.973 0 00-.818-.656z" fill="#0d0c22"/><path d="M673.847 213.822l-4.401-22.203c-3.95-19.92-12.915-38.744-33.364-45.944-6.554-2.304-13.992-3.293-19.017-8.062-5.026-4.767-6.512-12.172-7.674-19.038-2.153-12.603-4.176-25.217-6.382-37.798-1.905-10.816-3.412-22.967-8.373-32.89-6.458-13.324-19.857-21.116-33.181-26.27a191.083 191.083 0 00-20.868-6.458C507.298 6.377 472.299 3.148 438.053 1.308a860.84 860.84 0 00-123.327 2.044c-30.522 2.777-62.67 6.135-91.674 16.693-10.6 3.864-21.525 8.502-29.586 16.692-9.89 10.063-13.12 25.626-5.898 38.174 5.134 8.912 13.83 15.208 23.054 19.373a186.989 186.989 0 0037.431 12.183c35.839 7.922 72.959 11.031 109.572 12.356a834.397 834.397 0 00121.616-3.972 692.414 692.414 0 0029.909-3.95c11.72-1.797 19.243-17.123 15.788-27.8-4.133-12.763-15.24-17.714-27.799-15.787-1.851.29-3.692.559-5.543.828l-1.334.194c-4.255.538-8.51 1.04-12.764 1.507a677.44 677.44 0 01-26.433 2.324c-19.782 1.378-39.617 2.013-59.44 2.045-19.481 0-38.972-.549-58.409-1.83a742.696 742.696 0 01-26.54-2.217c-4.014-.42-8.018-.86-12.021-1.356l-3.81-.484-.829-.118-3.95-.57c-8.072-1.217-16.144-2.616-24.13-4.306a3.627 3.627 0 010-7.081h.151c6.92-1.475 13.894-2.734 20.89-3.832 2.332-.366 4.67-.724 7.017-1.076h.065c4.38-.29 8.782-1.076 13.14-1.593a835.769 835.769 0 01114.18-4.025c18.5.538 36.99 1.625 55.404 3.498 3.96.409 7.9.84 11.839 1.324 1.507.183 3.024.398 4.542.58l3.056.442a424.119 424.119 0 0126.594 4.832c13.066 2.842 29.845 3.767 35.656 18.081 1.852 4.542 2.691 9.59 3.713 14.357l1.302 6.081c.035.109.06.22.076.333 3.078 14.35 6.16 28.7 9.245 43.05a7.886 7.886 0 01-3.6 8.377 7.895 7.895 0 01-3.03 1.084h-.086l-1.883.258-1.862.247c-5.898.768-11.803 1.486-17.715 2.153a1144.214 1144.214 0 01-34.989 3.444 1224.212 1224.212 0 01-69.773 3.8 1254.63 1254.63 0 01-35.613.44 1235.803 1235.803 0 01-141.353-8.223 1473.1 1473.1 0 01-15.24-1.904c3.939.506-2.863-.388-4.24-.581a905.237 905.237 0 01-9.687-1.41c-10.838-1.626-21.61-3.627-32.427-5.382-13.076-2.152-25.582-1.076-37.41 5.382a54.414 54.414 0 00-22.526 23.354c-5.101 10.547-6.619 22.03-8.9 33.364-2.282 11.332-5.834 23.526-4.488 35.16 2.895 25.11 20.448 45.515 45.697 50.078 23.753 4.305 47.635 7.792 71.58 10.762a1322.789 1322.789 0 00306.483 1.765 16.146 16.146 0 0116.964 10.611 16.134 16.134 0 01.858 7.083l-2.389 23.225-14.443 140.783a111862.332 111862.332 0 01-19.47 189.439c-1.377 13.66-1.57 27.746-4.164 41.244-4.09 21.223-18.458 34.258-39.423 39.025a274.697 274.697 0 01-58.526 6.842c-21.837.12-43.663-.85-65.5-.731-23.312.131-51.865-2.02-69.86-19.372-15.81-15.237-17.994-39.099-20.147-59.734-2.87-27.315-5.714-54.624-8.535-81.932l-15.82-151.847-10.235-98.25c-.173-1.624-.345-3.228-.506-4.865-1.227-11.72-9.525-23.192-22.601-22.6-11.193.495-23.914 10.009-22.601 22.6l7.587 72.841 15.692 150.674c4.47 42.798 8.93 85.601 13.378 128.416.86 8.2 1.668 16.425 2.572 24.625 4.918 44.817 39.143 68.967 81.525 75.766 24.754 3.984 50.11 4.803 75.23 5.21 32.201.52 64.725 1.758 96.399-4.078 46.935-8.613 82.15-39.95 87.175-88.563 1.436-14.036 2.87-28.072 4.305-42.114 4.772-46.437 9.536-92.877 14.293-139.32l15.563-151.75 7.135-69.547a16.138 16.138 0 0113.001-14.196c13.42-2.615 26.25-7.081 35.796-17.295 15.196-16.261 18.22-37.464 12.85-58.838zm-504.855 15.003c.205-.097-.172 1.657-.333 2.475-.033-1.238.032-2.335.333-2.475zm1.302 10.074c.108-.076.43.355.765.872-.506-.475-.83-.83-.775-.872h.01zm1.281 1.69c.463.785.71 1.28 0 0zm2.572 2.087h.065c0 .076.118.15.161.226a1.668 1.668 0 00-.236-.226h.01zm450.43-3.121c-4.821 4.585-12.087 6.716-19.265 7.781-80.503 11.947-162.179 17.995-243.565 15.326-58.246-1.99-115.879-8.46-173.544-16.607-5.65-.796-11.774-1.83-15.66-5.994-7.318-7.857-3.723-23.677-1.818-33.17 1.743-8.696 5.08-20.287 15.423-21.525 16.143-1.894 34.891 4.919 50.863 7.34a963.128 963.128 0 0057.901 7.05c82.677 7.534 166.743 6.36 249.054-4.66a1039.155 1039.155 0 0044.847-7.028c13.27-2.379 27.983-6.845 36 6.898 5.5 9.364 6.232 21.891 5.382 32.47a18.103 18.103 0 01-5.629 12.119h.01z" fill="#000"/></g></svg>